<svg xmlns="http://www.w3.org/2000/svg" xmlns:xlink="http://www.w3.org/1999/xlink" width="776pt" height="176pt" viewBox="0.00 0.00 776.25 176.00">
<g id="graph0" class="graph" transform="scale(1 1) rotate(0) translate(4 172)">
<title>FoodieHub_EER</title>
<polygon fill="white" stroke="none" points="-4,4 -4,-172 772.25,-172 772.25,4 -4,4"/>
<!-- Customer -->
<g id="node1" class="node">
<title>Customer</title>
<polygon fill="lightyellow" stroke="black" points="0,-111.5 0,-167.5 162.88,-167.5 162.88,-111.5 0,-111.5"/>
<text text-anchor="middle" x="29.67" y="-136.5" font-family="Helvetica,sans-Serif" font-size="10.00">Customer</text>
<polyline fill="none" stroke="black" points="59.34,-111.5 59.34,-167.5"/>
<text text-anchor="start" x="67.34" y="-154.5" font-family="Helvetica,sans-Serif" font-size="10.00">+ id (PK)</text>
<text text-anchor="start" x="67.34" y="-142.5" font-family="Helvetica,sans-Serif" font-size="10.00"> + name</text>
<text text-anchor="start" x="67.34" y="-130.5" font-family="Helvetica,sans-Serif" font-size="10.00"> + phone (UNIQUE)</text>
<text text-anchor="start" x="67.34" y="-118.5" font-family="Helvetica,sans-Serif" font-size="10.00"> + created_at</text>
</g>
<!-- Order -->
<g id="node4" class="node">
<title>Order</title>
<polygon fill="lightyellow" stroke="black" points="232.39,-111.5 232.39,-167.5 521.52,-167.5 521.52,-111.5 232.39,-111.5"/>
<text text-anchor="middle" x="253.17" y="-136.5" font-family="Helvetica,sans-Serif" font-size="10.00">Order</text>
<polyline fill="none" stroke="black" points="273.95,-111.5 273.95,-167.5"/>
<text text-anchor="start" x="281.95" y="-154.5" font-family="Helvetica,sans-Serif" font-size="10.00">+ id (PK)</text>
<text text-anchor="start" x="281.95" y="-142.5" font-family="Helvetica,sans-Serif" font-size="10.00"> + customer_id (FK)</text>
<text text-anchor="start" x="281.95" y="-130.5" font-family="Helvetica,sans-Serif" font-size="10.00"> + restaurant_id (FK)</text>
<text text-anchor="middle" x="327.94" y="-118.5" font-family="Helvetica,sans-Serif" font-size="10.00"> + status (pending</text>
<polyline fill="none" stroke="black" points="381.94,-111.5 381.94,-167.5"/>
<text text-anchor="middle" x="413" y="-136.5" font-family="Helvetica,sans-Serif" font-size="10.00">completed</text>
<polyline fill="none" stroke="black" points="444.07,-111.5 444.07,-167.5"/>
<text text-anchor="start" x="452.07" y="-148.5" font-family="Helvetica,sans-Serif" font-size="10.00">cancelled)</text>
<text text-anchor="start" x="452.07" y="-136.5" font-family="Helvetica,sans-Serif" font-size="10.00"> + created_at</text>
<text text-anchor="start" x="452.07" y="-124.5" font-family="Helvetica,sans-Serif" font-size="10.00"> + updated_at</text>
</g>
<!-- Customer&#45;&gt;Order -->
<g id="edge1" class="edge">
<title>Customer-&gt;Order</title>
<path fill="none" stroke="black" d="M163.03,-139.5C181.06,-139.5 200.78,-139.5 220.7,-139.5"/>
<polygon fill="black" stroke="black" points="220.6,-143 230.6,-139.5 220.6,-136 220.6,-143"/>
<text text-anchor="middle" x="197.64" y="-142.2" font-family="Helvetica,sans-Serif" font-size="9.00">places</text>
</g>
<!-- Restaurant -->
<g id="node2" class="node">
<title>Restaurant</title>
<polygon fill="lightyellow" stroke="black" points="11.66,-11.5 11.66,-91.5 151.22,-91.5 151.22,-11.5 11.66,-11.5"/>
<text text-anchor="middle" x="44.11" y="-48.5" font-family="Helvetica,sans-Serif" font-size="10.00">Restaurant</text>
<polyline fill="none" stroke="black" points="76.57,-11.5 76.57,-91.5"/>
<text text-anchor="start" x="84.57" y="-78.5" font-family="Helvetica,sans-Serif" font-size="10.00">+ id (PK)</text>
<text text-anchor="start" x="84.57" y="-66.5" font-family="Helvetica,sans-Serif" font-size="10.00"> + name</text>
<text text-anchor="start" x="84.57" y="-54.5" font-family="Helvetica,sans-Serif" font-size="10.00"> + address</text>
<text text-anchor="start" x="84.57" y="-42.5" font-family="Helvetica,sans-Serif" font-size="10.00"> + phone</text>
<text text-anchor="start" x="84.57" y="-30.5" font-family="Helvetica,sans-Serif" font-size="10.00"> + is_active</text>
<text text-anchor="start" x="84.57" y="-18.5" font-family="Helvetica,sans-Serif" font-size="10.00"> + created_at</text>
</g>
<!-- MenuItem -->
<g id="node3" class="node">
<title>MenuItem</title>
<polygon fill="lightyellow" stroke="black" points="291.34,-0.5 291.34,-92.5 462.57,-92.5 462.57,-0.5 291.34,-0.5"/>
<text text-anchor="middle" x="322.96" y="-43.5" font-family="Helvetica,sans-Serif" font-size="10.00">Menu Item</text>
<polyline fill="none" stroke="black" points="354.58,-0.5 354.58,-92.5"/>
<text text-anchor="start" x="362.58" y="-79.5" font-family="Helvetica,sans-Serif" font-size="10.00">+ id (PK)</text>
<text text-anchor="start" x="362.58" y="-67.5" font-family="Helvetica,sans-Serif" font-size="10.00"> + restaurant_id (FK)</text>
<text text-anchor="start" x="362.58" y="-55.5" font-family="Helvetica,sans-Serif" font-size="10.00"> + name</text>
<text text-anchor="start" x="362.58" y="-43.5" font-family="Helvetica,sans-Serif" font-size="10.00"> + description</text>
<text text-anchor="start" x="362.58" y="-31.5" font-family="Helvetica,sans-Serif" font-size="10.00"> + price</text>
<text text-anchor="start" x="362.58" y="-19.5" font-family="Helvetica,sans-Serif" font-size="10.00"> + is_available</text>
<text text-anchor="start" x="362.58" y="-7.5" font-family="Helvetica,sans-Serif" font-size="10.00"> + created_at</text>
</g>
<!-- Restaurant&#45;&gt;MenuItem -->
<g id="edge3" class="edge">
<title>Restaurant-&gt;MenuItem</title>
<path fill="none" stroke="black" d="M151.63,-50.32C189.82,-49.67 237.85,-48.85 279.65,-48.14"/>
<polygon fill="black" stroke="black" points="279.53,-51.64 289.47,-47.97 279.41,-44.64 279.53,-51.64"/>
<text text-anchor="middle" x="197.64" y="-52.44" font-family="Helvetica,sans-Serif" font-size="9.00">has</text>
</g>
<!-- Restaurant&#45;&gt;Order -->
<g id="edge2" class="edge">
<title>Restaurant-&gt;Order</title>
<path fill="none" stroke="black" d="M151.52,-76.21C176.82,-84.94 205.78,-94.56 232.39,-102.5 238.55,-104.34 244.88,-106.17 251.28,-107.98"/>
<polygon fill="black" stroke="black" points="250.08,-111.28 260.65,-110.6 251.96,-104.54 250.08,-111.28"/>
<text text-anchor="middle" x="197.64" y="-98.88" font-family="Helvetica,sans-Serif" font-size="9.00">receives</text>
</g>
<!-- OrderItem -->
<g id="node5" class="node">
<title>OrderItem</title>
<polygon fill="lightyellow" stroke="black" points="592.03,-58.5 592.03,-126.5 768.25,-126.5 768.25,-58.5 592.03,-58.5"/>
<text text-anchor="middle" x="623.93" y="-89.5" font-family="Helvetica,sans-Serif" font-size="10.00">Order Item</text>
<polyline fill="none" stroke="black" points="655.82,-58.5 655.82,-126.5"/>
<text text-anchor="start" x="663.82" y="-113.5" font-family="Helvetica,sans-Serif" font-size="10.00">+ id (PK)</text>
<text text-anchor="start" x="663.82" y="-101.5" font-family="Helvetica,sans-Serif" font-size="10.00"> + order_id (FK)</text>
<text text-anchor="start" x="663.82" y="-89.5" font-family="Helvetica,sans-Serif" font-size="10.00"> + menu_item_id (FK)</text>
<text text-anchor="start" x="663.82" y="-77.5" font-family="Helvetica,sans-Serif" font-size="10.00"> + quantity</text>
<text text-anchor="start" x="663.82" y="-65.5" font-family="Helvetica,sans-Serif" font-size="10.00"> + unit_price</text>
</g>
<!-- MenuItem&#45;&gt;OrderItem -->
<g id="edge5" class="edge">
<title>MenuItem-&gt;OrderItem</title>
<path fill="none" stroke="black" d="M463.05,-59.5C499.63,-65.08 542.6,-71.65 580.55,-77.44"/>
<polygon fill="black" stroke="black" points="579.72,-80.86 590.14,-78.91 580.78,-73.94 579.72,-80.86"/>
<text text-anchor="middle" x="556.78" y="-79.01" font-family="Helvetica,sans-Serif" font-size="9.00">is part of</text>
</g>
<!-- Order&#45;&gt;OrderItem -->
<g id="edge4" class="edge">
<title>Order-&gt;OrderItem</title>
<path fill="none" stroke="black" d="M521.93,-117.03C541.81,-113.93 561.85,-110.8 580.65,-107.87"/>
<polygon fill="black" stroke="black" points="581.04,-111.35 590.38,-106.35 579.96,-104.43 581.04,-111.35"/>
<text text-anchor="middle" x="556.78" y="-115.89" font-family="Helvetica,sans-Serif" font-size="9.00">includes</text>
</g>
</g>
</svg>